<?xml version="1.0" standalone="no"?>
<!DOCTYPE svg PUBLIC "-//W3C//DTD SVG 20010904//EN"
 "http://www.w3.org/TR/2001/REC-SVG-20010904/DTD/svg10.dtd">
<svg version="1.0" xmlns="http://www.w3.org/2000/svg"
 width="32.000000pt" height="32.000000pt" viewBox="0 0 32.000000 32.000000"
 preserveAspectRatio="xMidYMid meet">

<g transform="translate(0.000000,32.000000) scale(0.100000,-0.100000)"
fill="#000000" stroke="none">
<path d="M0 160 l0 -160 160 0 160 0 0 160 0 160 -160 0 -160 0 0 -160z m243
104 c12 -12 -6 -34 -28 -34 -19 0 -23 -7 -29 -50 -4 -28 -9 -57 -12 -65 -4
-10 0 -15 14 -15 20 0 36 -23 25 -34 -4 -3 -35 -6 -70 -6 -56 0 -63 2 -63 20
0 14 7 20 24 20 20 0 25 7 35 57 14 73 14 73 -9 73 -22 0 -28 25 -7 33 17 8
113 8 120 1z"/>
</g>
</svg>
